<svg xmlns="http://www.w3.org/2000/svg" width="429" height="274" viewBox="0 0 429 274">
    <g fill="none" fill-rule="evenodd">
        <g>
            <g>
                <g>
                    <g>
                        <path fill="#F4F4F4" d="M290.58 78.936c7.353 10.425 13.624 21.682 23.817 30.08 17.411 14.346 43.877 18.023 58.446 35.367 15.63 18.605 8.75 44.965-7.994 60.558-11.14 10.372-26.129 17.01-41.702 20.99-33.73 8.62-258.753-.948-269.919-5.887-14.957-6.613-21.663-19.27-20.582-33.586 1.772-23.43 21.7-42.527 43.6-55.494 21.9-12.967 46.81-21.938 67.243-36.654 11.681-8.415 21.643-18.53 32.792-27.491 9.292-7.466 19.647-14.093 31.454-18.097 30.458-10.329 66.564 7.136 82.844 30.214" transform="translate(-647 -294) translate(648 295)"/>
                        <path fill="#F4C843" d="M286.262 245.651L284.227 251.405 279.934 248.319 279.934 185.235 286.262 185.235 286.262 245.651" transform="translate(-647 -294) translate(648 295)"/>
                        <path stroke="#121311" stroke-linecap="round" stroke-linejoin="round" stroke-width="1.275" d="M286.262 245.651L284.227 251.405 279.934 248.319 279.934 185.235 286.262 185.235z" transform="translate(-647 -294) translate(648 295)"/>
                        <path fill="#FFFFFE" d="M120.718 242.112L127.049 242.112 127.049 183.399 120.718 183.399z" transform="translate(-647 -294) translate(648 295)"/>
                        <path stroke="#121311" stroke-linecap="round" stroke-linejoin="round" stroke-width="1.275" d="M120.718 242.112L127.049 242.112 127.049 183.399 120.718 183.399z" transform="translate(-647 -294) translate(648 295)"/>
                        <path fill="#FFFFFE" d="M183.154 183.066H64.614c-.94 0-1.7-.763-1.7-1.704v-36.34c0-.943.76-1.704 1.7-1.704h118.54c.94 0 1.7.761 1.7 1.703v36.341c0 .94-.76 1.704-1.7 1.704" transform="translate(-647 -294) translate(648 295)"/>
                        <path stroke="#121311" stroke-linecap="round" stroke-linejoin="round" stroke-width="1.275" d="M183.154 183.066H64.614c-.94 0-1.7-.763-1.7-1.704v-36.34c0-.943.76-1.704 1.7-1.704h118.54c.94 0 1.7.761 1.7 1.703v36.341c0 .94-.76 1.704-1.7 1.704zm-33.064-24.06c5.622-.374 10.712 3.058 15.299 6.336l-15.3-6.335zm-6.955 2.077c.488-.229.98-.448 1.474-.654l-1.474.654zm-39.13 1.158c3.752-2.18 7.362-4.78 11.516-4.171 4.862.714 8.13 5.649 12.88 6.916 3.687.984 7.57-.419 11.006-2.081l-35.403-.664zm-22.31-4.128c3.819 5.884 11.936 8.535 18.484 6.035l-18.484-6.035z" transform="translate(-647 -294) translate(648 295)"/>
                        <path fill="#F4C843" d="M71.285 215.454L84.944 215.454 84.944 143.887 71.285 143.887z" transform="translate(-647 -294) translate(648 295)"/>
                        <path stroke="#121311" stroke-linecap="round" stroke-linejoin="round" stroke-width="1.275" d="M71.285 215.454L84.944 215.454 84.944 143.887 71.285 143.887z" transform="translate(-647 -294) translate(648 295)"/>
                        <path fill="#121311" d="M71.855 152.896L84.944 143.887 84.944 153.397 71.571 162.53 71.855 152.896M71.855 170.412L84.944 161.403 84.944 170.913 71.571 180.046 71.855 170.412M71.855 189.096L84.944 180.089 84.944 189.597 71.571 198.73 71.855 189.096M71.855 206.28L84.944 197.271 84.944 206.78 71.571 215.914 71.855 206.28" transform="translate(-647 -294) translate(648 295)"/>
                        <path fill="#B7D367" d="M78.959 271.592c-4.193-3.68-4.42-10.406-.481-14.308 3.938-3.901 11.385-4.332 15.843-.916-1.166-3.687-.178-8.095 3.173-10.453 3.353-2.359 9.057-1.77 11.049 1.618.181-5.203 1.645-10.515 5.187-14.624 3.542-4.108 9.406-6.797 15.11-5.993 5.547.783 10.155 4.775 12.105 9.523 1.952 4.75 1.505 10.102-.318 14.893 3.406-2.013 8.153-1.608 11.5.486 3.347 2.09 5.37 5.611 6.068 9.228.697 3.618.187 7.344-.726 10.922" transform="translate(-647 -294) translate(648 295)"/>
                        <path stroke="#121311" stroke-linecap="round" stroke-linejoin="round" stroke-width="1.275" d="M78.959 271.592c-4.193-3.68-4.42-10.406-.481-14.308 3.938-3.901 11.385-4.332 15.843-.916-1.166-3.687-.178-8.095 3.173-10.453 3.353-2.359 9.057-1.77 11.049 1.618.181-5.203 1.645-10.515 5.187-14.624 3.542-4.108 9.406-6.797 15.11-5.993 5.547.783 10.155 4.775 12.105 9.523 1.952 4.75 1.505 10.102-.318 14.893 3.406-2.013 8.153-1.608 11.5.486 3.347 2.09 5.37 5.611 6.068 9.228.697 3.618.187 7.344-.726 10.922" transform="translate(-647 -294) translate(648 295)"/>
                        <path fill="#90C353" d="M157.455 271.968l-6.915-.04c-.04-1.041-.12-2.082-.32-3.124-.72-3.604-2.757-7.126-6.076-9.248-3.359-2.083-8.114-2.481-11.513-.482 1.84-4.762 2.278-10.128.32-14.893-1.958-4.724-6.555-8.728-12.112-9.49-3.278-.478-6.594.202-9.474 1.642.68-1.2 1.44-2.362 2.36-3.443 3.557-4.082 9.393-6.765 15.109-5.964 5.557.761 10.154 4.763 12.113 9.528 1.957 4.725 1.518 10.09-.321 14.893 3.399-2.041 8.154-1.641 11.512.482 3.318 2.082 5.358 5.605 6.076 9.209.68 3.643.161 7.365-.759 10.93" transform="translate(-647 -294) translate(648 295)"/>
                        <path stroke="#121311" stroke-linecap="round" stroke-linejoin="round" stroke-width="1.275" d="M78.959 271.592c-4.193-3.68-4.42-10.406-.481-14.308 3.938-3.901 11.385-4.332 15.843-.916-1.166-3.687-.178-8.095 3.173-10.453 3.353-2.359 9.057-1.77 11.049 1.618.181-5.203 1.645-10.515 5.187-14.624 3.542-4.108 9.406-6.797 15.11-5.993 5.547.783 10.155 4.775 12.105 9.523 1.952 4.75 1.505 10.102-.318 14.893 3.406-2.013 8.153-1.608 11.5.486 3.347 2.09 5.37 5.611 6.068 9.228.697 3.618.187 7.344-.726 10.922m151.574.18H427m-126.868 0h3.247m-243.42 0h234.594m-291.266 0h46.68" transform="translate(-647 -294) translate(648 295)"/>
                        <path fill="#FFFFFE" d="M260.99 272.172L264.316 256.836" transform="translate(-647 -294) translate(648 295)"/>
                        <path stroke="#121311" stroke-linecap="round" stroke-linejoin="round" stroke-width="1.275" d="M260.99 272.172L264.316 256.836" transform="translate(-647 -294) translate(648 295)"/>
                        <path fill="#FFFFFE" d="M264.316 256.836c.77-4.49 4.576-8.293 9.061-9.053 4.486-.76 9.328 1.579 11.53 5.566.082-6.826 3.358-13.696 9.025-17.489 5.667-3.794 13.666-4.08 19.236-.146 5.573 3.93 7.94 12.08 4.793 18.139 4.817-1.71 10.57-.355 14.118 3.324 3.55 3.677 4.708 9.484 2.84 14.244" transform="translate(-647 -294) translate(648 295)"/>
                        <path stroke="#121311" stroke-linecap="round" stroke-linejoin="round" stroke-width="1.275" d="M264.316 256.836c.77-4.49 4.576-8.293 9.061-9.053 4.486-.76 9.328 1.579 11.53 5.566.082-6.826 3.358-13.696 9.025-17.489 5.667-3.794 13.666-4.08 19.236-.146 5.573 3.93 7.94 12.08 4.793 18.139 4.817-1.71 10.57-.355 14.118 3.324 3.55 3.677 4.708 9.484 2.84 14.244" transform="translate(-647 -294) translate(648 295)"/>
                        <path stroke="#B7D367" stroke-width="1.7" d="M370.281 72.848c0 2.54-2.056 4.6-4.592 4.6-2.536 0-4.593-2.06-4.593-4.6 0-2.541 2.057-4.602 4.593-4.602s4.592 2.06 4.592 4.602zm17.722 153.116c0 2.54-2.057 4.601-4.594 4.601-2.535 0-4.592-2.06-4.592-4.601 0-2.54 2.057-4.6 4.592-4.6 2.537 0 4.594 2.06 4.594 4.6z" transform="translate(-647 -294) translate(648 295)"/>
                        <path stroke="#FFFFFE" stroke-width="1.7" d="M352.962 183.255c0 3.06-2.478 5.54-5.531 5.54-3.054 0-5.531-2.48-5.531-5.54s2.477-5.54 5.53-5.54c3.054 0 5.532 2.48 5.532 5.54z" transform="translate(-647 -294) translate(648 295)"/>
                        <path stroke="#B7D367" stroke-width="1.7" d="M9.187 209.95c0 2.54-2.056 4.6-4.593 4.6S0 212.49 0 209.95c0-2.541 2.057-4.6 4.594-4.6 2.537 0 4.593 2.059 4.593 4.6zM30.243 66.078c0 2.54-2.055 4.6-4.592 4.6-2.537 0-4.594-2.06-4.594-4.6 0-2.54 2.057-4.601 4.594-4.601 2.537 0 4.592 2.06 4.592 4.601z" transform="translate(-647 -294) translate(648 295)"/>
                        <path stroke="#121311" stroke-linecap="round" stroke-linejoin="round" stroke-width="1.275" d="M332.028 76.918c-1.801 0-3.4.72-4.639 1.921-.717-4.283-4.196-7.486-8.393-7.486-4.198 0-7.716 3.283-8.355 7.607-1.398-.96-3.077-1.52-4.876-1.52-4.23 0-7.783 3.143-8.735 7.373-.085.382.231.753.62.753h41.252l.034-.029c.675-4.593-2.709-8.619-6.908-8.619zM109.177 27.872c-1.8 0-3.397.72-4.637 1.921-.72-4.283-4.198-7.487-8.394-7.487-4.197 0-7.715 3.284-8.356 7.608-1.397-.962-3.077-1.523-4.876-1.523-4.229 0-7.78 3.146-8.733 7.376-.087.382.23.753.619.753h41.253c.012-.012.02-.019.034-.029.673-4.593-2.71-8.619-6.91-8.619zm-68.288 93.42c-1.799 0-3.397.721-4.637 1.923-.719-4.284-4.196-7.486-8.394-7.486-4.197 0-7.714 3.282-8.355 7.606-1.398-.96-3.076-1.521-4.875-1.521-4.23 0-7.783 3.144-8.735 7.374-.086.381.23.753.62.753h41.25c.014-.01.022-.019.034-.03.677-4.592-2.708-8.618-6.908-8.618zm311.765-9.74h24.983-24.983zm37.306 10.011h30.649-30.649zm-15.363 0h7.537-7.537zM49.9 87.835h24.984-24.984zm37.308 10.01h30.646H87.21zm-15.364 0h7.537-7.537z" transform="translate(-647 -294) translate(648 295)"/>
                        <path fill="#FFFFFE" d="M195.491 225.773L201.82 225.773 201.82 126.674 195.491 126.674z" transform="translate(-647 -294) translate(648 295)"/>
                        <path stroke="#121311" stroke-linecap="round" stroke-linejoin="round" stroke-width="1.275" d="M195.491 225.773L201.82 225.773 201.82 126.674 195.491 126.674z" transform="translate(-647 -294) translate(648 295)"/>
                        <path fill="#FFF" d="M151.336 272.131c-2.518-4.794-2.77-12.049-1.794-17.107.976-5.061 3.807-9.983 8.486-12.909 4.683-2.926 11.321-3.491 16.085-.678-2.549-6.7-3.174-14.188-.445-20.828 2.73-6.642 9.173-12.228 16.935-13.323 7.976-1.124 16.175 2.637 21.13 8.384 4.953 5.746 7 13.179 7.255 20.454 2.785-4.738 10.766-5.564 15.452-2.263 4.69 3.298 6.072 9.462 4.441 14.619 6.235-4.78 16.651-4.176 22.159 1.282 5.505 5.458 5.87 17.24.008 22.386l-109.712-.017" transform="translate(-647 -294) translate(648 295)"/>
                        <path stroke="#121311" stroke-linecap="round" stroke-linejoin="round" stroke-width="1.275" d="M151.336 272.131c-2.518-4.794-2.77-12.049-1.794-17.107.976-5.061 3.807-9.983 8.486-12.909 4.683-2.926 11.321-3.491 16.085-.678-2.549-6.7-3.174-14.188-.445-20.828 2.73-6.642 9.173-12.228 16.935-13.323 7.976-1.124 16.175 2.637 21.13 8.384 4.953 5.746 7 13.179 7.255 20.454 2.785-4.738 10.766-5.564 15.452-2.263 4.69 3.298 6.072 9.462 4.441 14.619 6.235-4.78 16.651-4.176 22.159 1.282 5.505 5.458 5.87 17.24.008 22.386l-109.712-.017z" transform="translate(-647 -294) translate(648 295)"/>
                        <path fill="#EEAD44" d="M261.145 272.087c.64-5.003-.799-10.53-4.116-13.812-5.477-5.446-15.91-6.045-22.147-1.282 1.64-5.164.242-11.33-4.436-14.612-4.677-3.324-12.67-2.483-15.47 2.241-.239-7.248-2.278-14.694-7.236-20.46-4.956-5.724-13.15-9.488-21.145-8.367-5.675.8-10.673 4.004-14.03 8.328.28-1.201.64-2.363 1.12-3.522 2.717-6.649 9.152-12.213 16.908-13.333 7.994-1.123 16.188 2.641 21.145 8.406 4.958 5.725 6.995 13.173 7.236 20.46 2.797-4.765 10.792-5.565 15.468-2.282 4.677 3.323 6.077 9.488 4.44 14.614 6.234-4.765 16.666-4.164 22.142 1.28 5.477 5.445 5.877 17.137.121 22.341" transform="translate(-647 -294) translate(648 295)"/>
                        <path stroke="#121311" stroke-linecap="round" stroke-linejoin="round" stroke-width="1.275" d="M262.177 68.735l-59.915 60.012c-1.993 1.996-5.222 1.996-7.215 0l-59.915-60.012c-1.993-1.996-1.993-5.23 0-7.226l59.915-60.012c1.993-1.996 5.222-1.996 7.215 0l59.915 60.012c1.993 1.996 1.993 5.23 0 7.226z" transform="translate(-647 -294) translate(648 295)"/>
                        <path stroke="#121311" stroke-linecap="round" stroke-linejoin="round" stroke-width="1.275" d="M262.177 68.735l-59.915 60.012c-1.993 1.996-5.222 1.996-7.215 0l-59.915-60.012c-1.993-1.996-1.993-5.23 0-7.226l59.915-60.012c1.993-1.996 5.222-1.996 7.215 0l59.915 60.012c1.993 1.996 1.993 5.23 0 7.226z" transform="translate(-647 -294) translate(648 295)"/>
                        <path fill="#FFFFFE" d="M244.836 174.249l31.637-53.367c2.685-4.53 9.231-4.53 11.918 0l31.636 53.367c2.744 4.627-.585 10.486-5.958 10.486h-63.274c-5.374 0-8.702-5.859-5.96-10.486" transform="translate(-647 -294) translate(648 295)"/>
                        <path stroke="#121311" stroke-linecap="round" stroke-linejoin="round" stroke-width="1.275" d="M244.836 174.249l31.637-53.367c2.685-4.53 9.231-4.53 11.918 0l31.636 53.367c2.744 4.627-.585 10.486-5.958 10.486h-63.274c-5.374 0-8.702-5.859-5.96-10.486z" transform="translate(-647 -294) translate(648 295)"/>
                        <path fill="#F4C843" d="M282.431 163.915c-1.338 0-2.455-1.027-2.57-2.362l-1.929-22.317c-.13-1.509 1.06-2.808 2.571-2.808h3.856c1.514 0 2.704 1.299 2.571 2.808l-1.926 22.317c-.117 1.335-1.233 2.362-2.573 2.362" transform="translate(-647 -294) translate(648 295)"/>
                        <path stroke="#121311" stroke-linecap="round" stroke-linejoin="round" stroke-width="1.275" d="M282.431 163.915h0c-1.338 0-2.455-1.027-2.57-2.362l-1.929-22.317c-.13-1.509 1.06-2.808 2.571-2.808h3.856c1.514 0 2.704 1.299 2.571 2.808l-1.926 22.317c-.117 1.335-1.233 2.362-2.573 2.362z" transform="translate(-647 -294) translate(648 295)"/>
                        <path fill="#F4C843" d="M282.431 175.96c-1.868 0-3.388-1.522-3.388-3.394 0-1.873 1.52-3.396 3.388-3.396 1.87 0 3.39 1.523 3.39 3.396 0 1.872-1.52 3.394-3.39 3.394" transform="translate(-647 -294) translate(648 295)"/>
                        <path fill="#121311" d="M282.431 168.532c-2.22 0-4.026 1.808-4.026 4.034 0 2.224 1.806 4.033 4.026 4.033 2.223 0 4.028-1.809 4.028-4.033 0-2.226-1.805-4.034-4.028-4.034zm0 1.277c1.522 0 2.753 1.235 2.753 2.757 0 1.523-1.23 2.756-2.753 2.756-1.52 0-2.75-1.233-2.75-2.756 0-1.522 1.23-2.757 2.75-2.757z" transform="translate(-647 -294) translate(648 295)"/>
                        <path fill="#F0E356" d="M253.642 171.475L258.826 162.343" transform="translate(-647 -294) translate(648 295)"/>
                        <path stroke="#121311" stroke-linecap="round" stroke-linejoin="round" stroke-width="1.275" d="M253.642 171.475L258.826 162.343" transform="translate(-647 -294) translate(648 295)"/>
                        <path fill="#F0E356" d="M260.576 159.214L261.512 157.401" transform="translate(-647 -294) translate(648 295)"/>
                        <path stroke="#121311" stroke-linecap="round" stroke-linejoin="round" stroke-width="1.275" d="M260.576 159.214l.936-1.813-.936 1.813zm-109.24 112.917c-2.518-4.794-2.77-12.049-1.794-17.107.976-5.061 3.807-9.983 8.486-12.909 4.683-2.926 11.321-3.491 16.085-.678-2.549-6.7-3.174-14.188-.445-20.828 2.73-6.642 9.173-12.228 16.935-13.323 7.976-1.124 16.175 2.637 21.13 8.384 4.953 5.746 7 13.179 7.255 20.454 2.785-4.738 10.766-5.564 15.452-2.263 4.69 3.298 6.072 9.462 4.441 14.619 6.235-4.78 16.651-4.176 22.159 1.282 5.505 5.458 5.87 17.24.008 22.386l-109.712-.017z" transform="translate(-647 -294) translate(648 295)"/>
                        <path fill="#FDF9CC" d="M166.707 249.96c.287-.808.423-1.932-.602-2.729-.607-.47-1.411-.611-1.993-.487-.581.123-.986.465-1.36.81-2.892 2.663-4.882 6.053-5.819 9.924-.21.867-.36 1.81.087 2.834.515 1.177 2.037 2.475 3.095 1.913 1.227-.654 1.897-2.682 2.562-3.783 1.617-2.667 2.965-5.502 4.03-8.483" transform="translate(-647 -294) translate(648 295)"/>
                        <path fill="#FFFFFE" d="M225.787 52.265c0-13.367-12.148-24.202-27.132-24.202-14.984 0-27.131 10.835-27.131 24.202 0 9.532 6.194 17.752 15.173 21.698.988 1.135 1.806 2.42 2.382 3.81.516 1.245.859 2.578 1.585 3.713.728 1.136 1.977 2.07 3.317 1.924 2.21-.242 3.443-3.166 5.666-3.271 1.362-.065 2.49.972 3.514 1.873 1.024.9 2.364 1.783 3.658 1.354 1.222-.406 1.792-1.778 2.207-3 .751-2.21 1.465-4.432 2.176-6.656 8.663-4.042 14.585-12.121 14.585-21.445" transform="translate(-647 -294) translate(648 295)"/>
                        <path stroke="#121311" stroke-linecap="round" stroke-linejoin="round" stroke-width="1.275" d="M225.787 52.265c0-13.367-12.148-24.202-27.132-24.202-14.984 0-27.131 10.835-27.131 24.202 0 9.532 6.194 17.752 15.173 21.698.988 1.135 1.806 2.42 2.382 3.81.516 1.245.859 2.578 1.585 3.713.728 1.136 1.977 2.07 3.317 1.924 2.21-.242 3.443-3.166 5.666-3.271 1.362-.065 2.49.972 3.514 1.873 1.024.9 2.364 1.783 3.658 1.354 1.222-.406 1.792-1.778 2.207-3 .751-2.21 1.465-4.432 2.176-6.656 8.663-4.042 14.585-12.121 14.585-21.445z" transform="translate(-647 -294) translate(648 295)"/>
                        <path fill="#121311" d="M212.272 60.673c0 2.491-1.65 4.511-3.687 4.511-2.035 0-3.686-2.02-3.686-4.511 0-2.492 1.651-4.513 3.686-4.513 2.037 0 3.687 2.021 3.687 4.513M193.638 60.673c0 2.491-1.65 4.511-3.686 4.511s-3.685-2.02-3.685-4.511c0-2.492 1.65-4.513 3.685-4.513 2.037 0 3.686 2.021 3.686 4.513" transform="translate(-647 -294) translate(648 295)"/>
                        <path stroke="#121311" stroke-linecap="round" stroke-linejoin="round" stroke-width="1.275" d="M188.35 102.18c6.772-3.747 13.645-7.312 20.61-10.686m0 10.685c-6.771-3.746-13.644-7.31-20.61-10.685" transform="translate(-647 -294) translate(648 295)"/>
                        <path fill="#121311" d="M196.312 69.721c0 .708-.5 1.284-1.115 1.284-.617 0-1.115-.576-1.115-1.284 0-.71.498-1.286 1.115-1.286.616 0 1.115.576 1.115 1.286M203.228 69.721c0 .708-.499 1.284-1.114 1.284-.617 0-1.117-.576-1.117-1.284 0-.71.5-1.286 1.117-1.286.615 0 1.114.576 1.114 1.286" transform="translate(-647 -294) translate(648 295)"/>
                    </g>
                </g>
            </g>
        </g>
    </g>
</svg>
