<svg xmlns="http://www.w3.org/2000/svg" width="444" height="328" viewBox="0 0 444 328">
    <g fill="none" fill-rule="evenodd">
        <g>
            <g>
                <g>
                    <g>
                        <path fill="#F8D0B8" d="M118.19 166.464v-13.845c0-2.606.093-6.12.284-10.547.19-4.424.34-6.746.448-6.963h-.896c-1.847 4.18-3.937 8.09-6.27 11.728L98.56 166.464h19.628zm44.874 24.026h-13.112v23.048H118.19V190.49H70.71v-23.62l49.516-72.401h29.727v71.995h13.112v24.026zM203.459 154.166c0 13.467.84 22.724 2.525 27.772 1.682 5.049 4.506 7.575 8.47 7.575 4.017 0 6.853-2.607 8.51-7.82 1.657-5.211 2.484-14.386 2.484-27.527 0-13.193-.843-22.437-2.525-27.731-1.683-5.294-4.507-7.94-8.47-7.94-3.963 0-6.787 2.553-8.47 7.655-1.683 5.104-2.524 14.443-2.524 28.016m53.996 0c0 21.067-3.531 36.501-10.587 46.301-7.06 9.801-17.865 14.7-32.414 14.7-14.226 0-24.95-5.116-32.17-15.352-7.221-10.233-10.831-25.451-10.831-45.649 0-21.175 3.528-36.702 10.587-46.585 7.057-9.881 17.863-14.822 32.414-14.822 14.17 0 24.88 5.145 32.129 15.433 7.248 10.29 10.872 25.614 10.872 45.974M313.65 166.464v-13.845c0-2.606.094-6.12.285-10.547.19-4.424.338-6.746.448-6.963h-.895c-1.847 4.18-3.94 8.09-6.272 11.728l-13.193 19.627h19.627zm44.874 24.026h-13.111v23.048H313.65V190.49h-47.48v-23.62l49.516-72.401h29.727v71.995h13.11v24.026z" transform="translate(-498 -279) translate(499 280) translate(0 36)"/>
                        <path stroke="#000" stroke-linecap="round" stroke-linejoin="round" stroke-width="2.163" d="M22.985 120.889L71.121 120.889M82.676 120.889L92.951 120.889M14.268 107.34L100.442 107.34M7.175 107.34L.082 107.34M14.268 94.469L42.877 94.469M50.538 94.469L110.624 94.469M363.244 228.376L414.756 228.376M423.134 228.376L430.584 228.376M373.531 214.828L441.039 214.828M368.387 214.828L363.243 214.828M363.244 201.957L394.276 201.957M399.83 201.957L423.135 201.957" transform="translate(-498 -279) translate(499 280) translate(0 36)"/>
                        <path stroke="#000" stroke-width="3.268" d="M124.354 166.009v-13.845c0-2.606.094-6.12.285-10.547.19-4.424.339-6.746.448-6.963h-.896c-1.847 4.182-3.937 8.09-6.271 11.728l-13.194 19.627h19.628zm44.875 24.026h-13.112v23.048h-31.763v-23.048H76.873v-23.62l49.517-72.4h29.727v71.994h13.112v24.026zM209.624 153.711c0 13.466.84 22.723 2.525 27.772 1.683 5.05 4.506 7.574 8.47 7.574 4.018 0 6.852-2.605 8.51-7.818 1.656-5.212 2.483-14.388 2.483-27.528 0-13.193-.843-22.437-2.523-27.73-1.684-5.295-4.508-7.94-8.47-7.94-3.964 0-6.787 2.551-8.47 7.653-1.685 5.105-2.525 14.444-2.525 28.017zm53.996 0c0 21.067-3.53 36.5-10.589 46.3-7.058 9.801-17.864 14.7-32.412 14.7-14.226 0-24.95-5.116-32.17-15.35-7.222-10.234-10.832-25.452-10.832-45.65 0-21.175 3.529-36.702 10.588-46.585 7.056-9.882 17.862-14.822 32.413-14.822 14.172 0 24.88 5.144 32.129 15.433 7.248 10.29 10.873 25.614 10.873 45.974zM319.815 166.009v-13.845c0-2.606.094-6.12.285-10.547.189-4.424.338-6.746.447-6.963h-.895c-1.847 4.182-3.938 8.09-6.272 11.728l-13.193 19.627h19.628zm44.874 24.026h-13.111v23.048h-31.763v-23.048h-47.481v-23.62l49.516-72.4h29.728v71.994h13.11v24.026z" transform="translate(-498 -279) translate(499 280) translate(0 36)"/>
                        <path stroke="#000" stroke-linecap="round" stroke-linejoin="round" stroke-width="2.163" d="M385.724 117.953L385.724 106.914M378.018 121.144L370.212 113.338M374.827 128.85L363.788 128.85M378.018 136.556L370.212 144.361M385.724 139.748L385.724 150.786M393.43 136.556L401.236 144.361M396.622 128.85L407.661 128.85M393.43 121.144L401.236 113.338M39.496 172.919L39.496 164.94M33.926 175.226L28.284 169.583M31.619 180.796L23.64 180.796M33.926 186.366L28.284 192.008M39.496 188.673L39.496 196.652M45.066 186.366L50.709 192.008M47.373 180.796L55.352 180.796M45.066 175.226L50.709 169.583M255.417 8.106L255.417.127M249.847 10.413L244.205 4.771M247.541 15.983L239.561 15.983M249.847 21.553L244.205 27.195M255.417 23.86L255.417 31.839M260.988 21.553L266.63 27.195M263.294 15.983L271.273 15.983M260.988 10.413L266.63 4.771" transform="translate(-498 -279) translate(499 280) translate(0 36)"/>
                        <path stroke="#000" stroke-linecap="round" stroke-linejoin="round" stroke-width="2.419" d="M79 272.098L352.761 272.098 352.761 229 79 229z" transform="translate(-498 -279) translate(499 280) translate(0 36)"/>
                    </g>
                    <g stroke="#000" stroke-linecap="round" stroke-linejoin="round">
                        <path stroke-width="2.163" d="M89.443 111.05L89.443 76.522 268.936 76.522 268.936 153.241" transform="translate(-498 -279) translate(499 280) translate(11)"/>
                        <path stroke-width="2.163" d="M205.671 51.983L205.671 95.212 324.698 95.212 324.698 114.881M93.726 115.334c0 2.365-1.917 4.282-4.283 4.282-2.365 0-4.283-1.916-4.283-4.282 0-2.367 1.918-4.284 4.283-4.284 2.366 0 4.283 1.918 4.283 4.284z" transform="translate(-498 -279) translate(499 280) translate(11)"/>
                        <path stroke-width="2.163" d="M209.954 47.7c0 2.365-1.918 4.283-4.282 4.283-2.367 0-4.284-1.918-4.284-4.283 0-2.366 1.917-4.283 4.284-4.283 2.364 0 4.282 1.917 4.282 4.283zM328.982 119.617c0 2.366-1.918 4.283-4.283 4.283-2.366 0-4.283-1.917-4.283-4.283 0-2.366 1.917-4.283 4.283-4.283 2.365 0 4.283 1.917 4.283 4.283zM273.22 158.236c0 2.366-1.919 4.283-4.284 4.283-2.365 0-4.283-1.917-4.283-4.283 0-2.366 1.918-4.283 4.283-4.283s4.283 1.917 4.283 4.283zM61.53 244.016L51.396 254.151M51.395 244.016L61.529 254.151M66.597 96.853L56.463 106.987M56.463 96.853L66.597 106.987M395.302 211.728L385.168 221.863M385.168 211.728L395.302 221.863" transform="translate(-498 -279) translate(499 280) translate(11)"/>
                        <path stroke-width="2.261" d="M107.705 39.014c-3.232 0-6.19 1.163-8.487 3.09-2.346-7.063-8.994-12.16-16.844-12.16-8.787 0-16.064 6.388-17.486 14.77-.927-.265-1.902-.416-2.913-.416-5.843 0-10.58 4.737-10.58 10.58 0 5.375 4.012 9.803 9.203 10.48v.1h47.107c7.302 0 13.222-5.92 13.222-13.222 0-7.303-5.92-13.222-13.222-13.222z" transform="translate(-498 -279) translate(499 280) translate(11)"/>
                        <path stroke-width="2.163" d="M352.84 106.27c2.348 0 4.496.845 6.165 2.243 1.704-5.13 6.533-8.834 12.236-8.834 6.384 0 11.67 4.642 12.704 10.731.673-.191 1.381-.301 2.116-.301 4.245 0 7.685 3.44 7.685 7.686 0 3.904-2.914 7.121-6.684 7.612v.074H352.84c-5.305 0-9.605-4.301-9.605-9.606s4.3-9.606 9.605-9.606zM400.024 287.966c-1.97 0-3.771.709-5.171 1.882-1.43-4.303-5.48-7.41-10.262-7.41-5.354 0-9.788 3.894-10.654 9-.564-.16-1.158-.252-1.774-.252-3.561 0-6.447 2.885-6.447 6.445 0 3.275 2.445 5.973 5.608 6.385v.06h28.7c4.448 0 8.056-3.606 8.056-8.054 0-4.45-3.608-8.056-8.056-8.056zM10.488 270.967c2.348 0 4.497.845 6.166 2.244 1.704-5.131 6.533-8.835 12.236-8.835 6.384 0 11.67 4.642 12.703 10.732.674-.193 1.382-.302 2.117-.302 4.244 0 7.685 3.44 7.685 7.685 0 3.906-2.914 7.122-6.685 7.614v.072H10.488c-5.305 0-9.605-4.3-9.605-9.606 0-5.304 4.3-9.604 9.605-9.604z" transform="translate(-498 -279) translate(499 280) translate(11)"/>
                        <path stroke-dasharray="3.268 7.624" stroke-width="2.163" d="M120.927 32.67s60.44-49.276 142.56-26.575c86.264 23.847 103.53 85.357 103.53 85.357" transform="translate(-498 -279) translate(499 280) translate(11)"/>
                        <path stroke-dasharray="3.047 7.109" stroke-width="2.017" d="M29.667 175.892c-23.43 3.635-35.21 53.364-8.854 73.104" transform="translate(-498 -279) translate(499 280) translate(11)"/>
                        <path stroke-dasharray="3.268 7.624" stroke-width="2.163" d="M324.699 319.378s40.138 17.547 57.73-6.933" transform="translate(-498 -279) translate(499 280) translate(11)"/>
                        <path stroke-width="2.163" d="M133.748 119.617L133.748 94.271M127.63 119.617L127.63 106.987M226.905 125.48L226.905 106.943M219.954 123.9L219.954 116.212M213.788 123.9L213.788 111.05M139.628 119.617L139.628 106.944M307.63 123.144L307.63 117.475M301.512 123.144L301.512 109.334M313.51 123.144L313.51 113.28" transform="translate(-498 -279) translate(499 280) translate(11)"/>
                    </g>
                </g>
                <text fill="#000" font-family="OpenSans-Semibold, Open Sans" font-size="32.07" font-weight="500" letter-spacing="5" transform="translate(-498 -279) translate(499 280)">
                    <tspan x="155" y="299.037">ERROR</tspan>
                </text>
            </g>
        </g>
    </g>
</svg>
