<?xml version="1.0" encoding="UTF-8"?>
<svg width="32px" height="32px" viewBox="0 0 32 32" version="1.1" xmlns="http://www.w3.org/2000/svg" xmlns:xlink="http://www.w3.org/1999/xlink">
    <title>icon-amat-thick-close</title>
    <g id="icon-amat-thick-close" stroke="none" stroke-width="1" fill="none" fill-rule="evenodd">
        <path d="M17.5221,15.9892411 L25.6381,7.83724106 C25.9099791,7.56536195 26.01616,7.16908951 25.9166453,6.79769573 C25.8171307,6.42630195 25.5270391,6.13621039 25.1556453,6.03669573 C24.7842516,5.93718107 24.3879791,6.04336195 24.1161,6.31524106 L16.0001,14.4672411 L7.84810001,6.31524106 C7.5762209,6.04336193 7.17994845,5.93718104 6.80855466,6.0366957 C6.43716087,6.13621036 6.1470693,6.42630193 6.04755464,6.79769571 C5.94803998,7.1690895 6.05422088,7.56536195 6.32610001,7.83724106 L14.4421,15.9892411 L6.32610001,24.1412411 C6.11785701,24.3396055 6,24.6146413 6,24.9022411 C6,25.1898408 6.11785701,25.4648766 6.32610001,25.6632411 C6.52446446,25.8714841 6.79950028,25.9893411 7.08710001,25.9893411 C7.37469973,25.9893411 7.64973556,25.8714841 7.84810001,25.6632411 L16.0001,17.5112411 L24.1521,25.6632411 C24.3504645,25.8714841 24.6255003,25.9893411 24.9131,25.9893411 C25.2006997,25.9893411 25.4757356,25.8714841 25.6741,25.6632411 C25.882343,25.4648766 26.0002,25.1898408 26.0002,24.9022411 C26.0002,24.6146413 25.882343,24.3396055 25.6741,24.1412411 L17.5221,15.9892411 Z" fill="#fff" fill-rule="nonzero"></path>
    </g>
</svg>